PathFileType	4	(X/Y/Z)	/Users/itak/Documents/Research/Walk-IL/dataset/trc/00419_00012.trc
DataRate	CameraRate	NumFrames	NumMarkers	Units	OrigDataRate	OrigDataStartFrame	OrigNumFrames
100.000000	100.000000	4	54	mm	100.000000	327	524
Frame#	Time	RPSI			LPSI			L3			STRN			T10			C7			CLAV			RBAK			LBAK			LSHO			LUPA			LAEL			LAOL			LWTS			LWPS			LFRA			LIFD			LHPS			LHTS			RSHO			RUPA			RAEL			RAOL			RWTS			RWPS			RFRA			RIFD			RHTS			RHPS			RBHD			LFHD			RFHD			LBHD			LHIP			RHIP			RASI			LASI			LKNE			LTHI			LANK			LTIP			LTOE			LMT1			LMT5			LHEE			RKNE			RTHI			RANK			RTIP			RTOE			RMT1			RMT5			RHEE			*53			
		X1	Y1	Z1	X2	Y2	Z2	X3	Y3	Z3	X4	Y4	Z4	X5	Y5	Z5	X6	Y6	Z6	X7	Y7	Z7	X8	Y8	Z8	X9	Y9	Z9	X10	Y10	Z10	X11	Y11	Z11	X12	Y12	Z12	X13	Y13	Z13	X14	Y14	Z14	X15	Y15	Z15	X16	Y16	Z16	X17	Y17	Z17	X18	Y18	Z18	X19	Y19	Z19	X20	Y20	Z20	X21	Y21	Z21	X22	Y22	Z22	X23	Y23	Z23	X24	Y24	Z24	X25	Y25	Z25	X26	Y26	Z26	X27	Y27	Z27	X28	Y28	Z28	X29	Y29	Z29	X30	Y30	Z30	X31	Y31	Z31	X32	Y32	Z32	X33	Y33	Z33	X34	Y34	Z34	X35	Y35	Z35	X36	Y36	Z36	X37	Y37	Z37	X38	Y38	Z38	X39	Y39	Z39	X40	Y40	Z40	X41	Y41	Z41	X42	Y42	Z42	X43	Y43	Z43	X44	Y44	Z44	X45	Y45	Z45	X46	Y46	Z46	X47	Y47	Z47	X48	Y48	Z48	X49	Y49	Z49	X50	Y50	Z50	X51	Y51	Z51	X52	Y52	Z52	X53	Y53	Z53	X54	Y54	Z54	

328	3.27	-305.591064453125	962.6205444335938	-389.4796142578125	-214.6341857910156	969.5433349609375	-484.3007202148438	-261.6780090332031	1049.952026367188	-430.9361877441406	-109.301872253418	1201.2822265625	-239.6933898925781	-256.2355346679688	1150.009399414062	-443.748779296875	-233.7827301025391	1399.148193359375	-408.9431762695312	-146.1136016845703	1321.479614257812	-277.7346801757812	-304.7997436523438	1251.506103515625	-412.7539672851562	-157.0721282958984	1368.532470703125	-481.2395629882812	-68.04671478271484	1386.822998046875	-437.0680541992188	-16.74042701721191	1277.453369140625	-503.9022521972656	34.40226745605469	1087.911743164062	-507.7616577148438	-44.6831169128418	1052.51123046875	-515.5940551757812	134.2007904052734	941.9940795898438	-371.8702392578125	154.4707183837891	911.3786010742188	-445.7591857910156	81.17261505126953	1004.276428222656	-489.7777404785156	210.6937408447266	790.9110717773438	-323.3677978515625	197.6580352783203	849.1329345703125	-408.5011596679688	204.590576171875	872.8501586914062	-349.4127807617188	-327.3745727539062	1370.226196289062	-272.2140502929688	-384.09521484375	1309.08056640625	-259.7023620605469	-431.6527404785156	1050.876586914062	-287.1568298339844	-356.4097290039062	1048.425415039062	-345.8297424316406	-361.0753173828125	816.6786499023438	-224.5127410888672	-434.3112182617188	812.2371826171875	-236.1865844726562	-439.6037902832031	982.2721557617188	-269.0608520507812	-379.9829711914062	643.9503784179688	-254.7236175537109	-377.0693664550781	711.4241943359375	-225.8797912597656	-435.4307556152344	722.4195556640625	-246.1195983886719	-303.6228332519531	1569.609619140625	-322.0707702636719	-112.9657745361328	1605.309814453125	-288.309326171875	-214.6002807617188	1592.0478515625	-223.9109344482422	-178.3136901855469	1582.848388671875	-420.3246154785156	-72.05814361572266	966.74609375	-503.2433776855469	-322.4953918457031	940.032470703125	-248.9441680908203	-191.6331634521484	955.4144287109375	-197.0008544921875	-15.97062015533447	959.82373046875	-393.4732055664062	-57.06496810913086	468.5023498535156	-479.9465942382812	-50.28884124755859	613.1602172851562	-485.5265197753906	-181.1442260742188	43.50706481933594	-553.681640625	-110.0961608886719	240.4530792236328	-524.0636596679688	-55.76237869262695	38.4725456237793	-366.3690185546875	-138.677490234375	36.40437698364258	-394.0703125	-77.50804138183594	39.93958282470703	-480.7427368164062	-246.1205596923828	39.64075088500977	-535.8573608398438	-119.2455520629883	499.1836853027344	-124.2329940795898	-213.6321563720703	739.5346069335938	-154.0400238037109	-191.2408905029297	104.1882629394531	-279.9379272460938	-116.3240280151367	373.9092407226562	-149.7634429931641	-36.85532760620117	50.22554397583008	-195.7013549804688	-59.31077575683594	69.25923919677734	-267.0802612304688	-146.6942443847656	67.15732574462891	-217.5853271484375	-193.6475372314453	115.7423782348633	-369.9332885742188	nan	nan	nan	
329	3.28	-298.0536499023438	961.5211181640625	-384.106689453125	-207.0513916015625	968.714111328125	-478.6376037597656	-254.0356903076172	1048.771850585938	-425.8045959472656	-102.3193359375	1199.749267578125	-233.7568054199219	-248.1024627685547	1148.825317382812	-438.72802734375	-225.2234497070312	1397.976196289062	-403.7391052246094	-138.7416839599609	1319.977172851562	-272.0060424804688	-296.3295288085938	1250.484619140625	-408.2756958007812	-148.0700836181641	1367.264282226562	-475.5473327636719	-59.27409744262695	1385.324951171875	-430.6530456542969	-7.528229713439941	1275.617431640625	-496.7197570800781	44.13242721557617	1086.438842773438	-499.1885681152344	-34.63134002685547	1050.321655273438	-507.9318542480469	144.7720489501953	947.4732666015625	-359.3139038085938	166.1018676757812	914.1141967773438	-431.6790771484375	91.46965026855469	1004.442443847656	-479.5104064941406	222.6342010498047	799.8168334960938	-302.7403259277344	209.5382537841797	853.6525268554688	-391.0450134277344	215.6511840820312	880.271728515625	-333.0796203613281	-320.0530395507812	1369.024047851562	-267.8093872070312	-376.9901428222656	1308.175415039062	-256.2136535644531	-425.4797973632812	1050.59521484375	-287.0733337402344	-349.1058654785156	1048.135498046875	-344.2590942382812	-358.7789306640625	815.1016235351562	-226.1231689453125	-431.8831176757812	811.541015625	-239.2796020507812	-434.6173095703125	982.0213012695312	-269.8631896972656	-379.1417846679688	642.7869873046875	-259.0929565429688	-375.9315490722656	710.7382202148438	-230.3214416503906	-434.0005187988281	722.1319580078125	-250.8945465087891	-295.6778259277344	1568.338134765625	-316.7531127929688	-105.2286605834961	1603.802734375	-281.7479248046875	-207.282958984375	1590.370483398438	-218.0438537597656	-169.8880004882812	1581.869140625	-414.2831420898438	-64.34328460693359	965.6338500976562	-497.196044921875	-315.2799987792969	938.9222412109375	-243.6251831054688	-184.5937042236328	954.24560546875	-191.1600952148438	-8.382049560546875	958.1903076171875	-387.2294616699219	-54.58460235595703	467.8085632324219	-479.302734375	-46.2116813659668	612.4443359375	-483.1105041503906	-181.2014312744141	43.51829528808594	-553.6341552734375	-109.2358856201172	240.205322265625	-524.0914916992188	-55.69655227661133	38.52942276000977	-366.5875244140625	-138.5854949951172	36.46103668212891	-394.0601806640625	-77.43851470947266	39.88173675537109	-480.7924194335938	-246.1473846435547	39.74301910400391	-535.8369750976562	-110.9057388305664	499.3661499023438	-115.4090881347656	-207.6021728515625	739.3646850585938	-147.3142547607422	-165.1127624511719	96.22006988525391	-257.5274658203125	-103.4424591064453	373.3473205566406	-136.8747711181641	-10.445631980896	51.65834808349609	-168.6424865722656	-32.24669647216797	66.9805908203125	-241.0755767822266	-120.5572052001953	63.48318862915039	-192.9936370849609	-166.7112274169922	104.2157897949219	-347.9237976074219	nan	nan	nan	
330	3.29	-290.5563354492188	960.1526489257812	-378.5297546386719	-199.525390625	967.639892578125	-472.8397521972656	-246.342529296875	1047.331176757812	-420.4501037597656	-95.34561920166016	1197.967529296875	-227.7645263671875	-240.0205230712891	1147.383911132812	-433.4606323242188	-216.7553558349609	1396.556884765625	-398.4344482421875	-131.3852233886719	1318.211791992188	-266.2210693359375	-287.9646911621094	1249.20263671875	-403.6127319335938	-139.1684417724609	1365.717529296875	-469.7652282714844	-50.5932731628418	1383.559204101562	-424.2062072753906	1.567907691001892	1273.471069335938	-489.4530029296875	53.73781967163086	1084.64111328125	-490.4593200683594	-24.69869804382324	1047.844482421875	-500.1317138671875	154.8444519042969	952.4952392578125	-346.8585205078125	177.2891693115234	916.5679931640625	-417.642578125	101.5558090209961	1004.298095703125	-469.1367492675781	233.8388824462891	808.5119018554688	-282.6650085449219	220.9001007080078	858.021484375	-373.8085632324219	226.1051330566406	887.3306884765625	-317.0225219726562	-312.7835693359375	1367.601684570312	-263.2583618164062	-369.93212890625	1307.036743164062	-252.5284881591797	-419.1519775390625	1050.058227539062	-286.7025756835938	-341.6441040039062	1047.573364257812	-342.3855590820312	-356.2433166503906	813.3826904296875	-227.5632629394531	-429.1409301757812	810.7040405273438	-242.1513977050781	-429.3674011230469	981.5391845703125	-270.3782653808594	-378.1604919433594	641.53662109375	-263.2495727539062	-374.6683654785156	710.019287109375	-234.6057281494141	-432.4442749023438	721.8150634765625	-255.5230102539062	-287.7841796875	1566.848266601562	-311.3884887695312	-97.50022888183594	1602.051147460938	-275.2037963867188	-199.9943389892578	1588.494995117188	-212.1796875	-161.5484313964844	1580.617065429688	-408.2207641601562	-56.74153137207031	964.3358154296875	-491.1361999511719	-308.0574645996094	937.38037109375	-238.1709289550781	-177.4509429931641	952.787353515625	-185.2029724121094	-0.8536048531532288	956.4356079101562	-380.9828491210938	-52.00948333740234	467.0426635742188	-478.3550109863281	-42.08263778686523	611.6233520507812	-480.52294921875	-181.2882843017578	43.53918075561523	-553.5556030273438	-108.3160934448242	239.9448089599609	-523.9404907226562	-55.60738372802734	38.59101486206055	-366.776611328125	-138.4944915771484	36.49798965454102	-394.0438842773438	-77.36915588378906	39.83976745605469	-480.8231506347656	-246.2144470214844	39.84728240966797	-535.7869873046875	-102.9569854736328	498.9447631835938	-107.0251998901367	-201.6106872558594	738.690185546875	-140.7697601318359	-139.2521057128906	88.63449859619141	-234.1716766357422	-90.98814392089844	372.5399780273438	-124.1090316772461	15.36429309844971	53.41342544555664	-141.3448028564453	-5.771628379821777	65.15202331542969	-214.6208190917969	-94.80715179443359	60.17959213256836	-167.7215576171875	-140.1012115478516	93.17592620849609	-324.793701171875	nan	nan	nan	
331	3.3	-283.0995483398438	958.5347900390625	-372.7381896972656	-192.0674438476562	966.3390502929688	-466.8943786621094	-238.6517944335938	1045.659301757812	-414.8757019042969	-88.37197875976562	1195.9794921875	-221.7166595458984	-232.0778198242188	1145.722290039062	-427.973876953125	-208.3826446533203	1394.909423828125	-393.0258483886719	-124.049072265625	1316.222045898438	-260.3720092773438	-279.7071533203125	1247.683715820312	-398.7818908691406	-130.3764953613281	1363.919189453125	-463.88818359375	-42.01177215576172	1381.57177734375	-417.7231750488281	10.54677391052246	1271.070678710938	-482.1049194335938	63.20476150512695	1082.586303710938	-481.5762329101562	-14.88979721069336	1045.1396484375	-492.1714477539062	164.3954010009766	957.0208740234375	-334.4890441894531	188.0441284179688	918.7631225585938	-403.6651000976562	111.4369964599609	1003.890258789062	-458.6463317871094	244.3711090087891	816.8911743164062	-263.2123107910156	231.771728515625	862.2254028320312	-356.8379516601562	235.9666595458984	893.9789428710938	-301.2554626464844	-305.5675964355469	1365.9833984375	-258.5666809082031	-362.9345397949219	1305.69189453125	-248.6482086181641	-412.6786499023438	1049.283935546875	-286.0182800292969	-334.0484924316406	1046.7626953125	-340.1867980957031	-353.4715881347656	811.4945678710938	-228.8189239501953	-426.0738525390625	809.7373046875	-244.7574920654297	-423.8285522460938	980.8364868164062	-270.5703125	-377.0173645019531	640.2186279296875	-267.1985473632812	-373.2066650390625	709.2186279296875	-238.6107940673828	-430.6834411621094	721.4192504882812	-259.879150390625	-279.9476013183594	1565.158447265625	-305.9774780273438	-89.78452301025391	1600.075927734375	-268.6748657226562	-192.7273406982422	1586.44775390625	-206.3083648681641	-153.2892913818359	1579.1103515625	-402.1342163085938	-49.25363159179688	962.873779296875	-485.0558166503906	-300.8028259277344	935.444091796875	-232.5201263427734	-170.2013854980469	951.0848388671875	-179.1410522460938	6.644790649414062	954.6183471679688	-374.7068176269531	-49.32905960083008	466.204345703125	-477.0724487304688	-37.88644409179688	610.7056274414062	-477.7288513183594	-181.4068450927734	43.57532501220703	-553.4432983398438	-107.3322067260742	239.6712646484375	-523.5964965820312	-55.49806594848633	38.65144348144531	-366.9407043457031	-138.4179077148438	36.51195907592773	-394.0248413085938	-77.31198883056641	39.80465316772461	-480.8361511230469	-246.3250274658203	39.96381378173828	-535.7025756835938	-95.4210205078125	497.9322204589844	-99.10672760009766	-195.6022186279297	737.524658203125	-134.4154052734375	-113.7746887207031	81.57185363769531	-209.9848785400391	-79.00543975830078	371.5179748535156	-111.5107727050781	40.53936004638672	55.49760818481445	-113.9275360107422	20.06130218505859	63.84309387207031	-187.8421630859375	-69.4998779296875	57.32258224487305	-141.8946533203125	-113.8905944824219	82.79065704345703	-300.6768188476562	nan	nan	nan	
